<?xml version="1.0" encoding="utf-8"?>
<!-- Generator: Adobe Illustrator 22.0.1, SVG Export Plug-In . SVG Version: 6.00 Build 0)  -->
<svg version="1.1" id="Capa_1" xmlns="http://www.w3.org/2000/svg" xmlns:xlink="http://www.w3.org/1999/xlink" x="0px" y="0px"
	 viewBox="0 0 200 200" style="enable-background:new 0 0 200 200;" xml:space="preserve">
<style type="text/css">
	.st0{fill:url(#SVGID_1_);}

	#OBJECTS {
		-webkit-animation: llenar 5s forwards;
        -moz-animation: llenar 5s forwards;
		-o-animation: llenar 5s forwards;
		animation: llenar 5s forwards;
	}
	@keyframes llenar
    {
		0% { stroke-dashoffset: 2700;fill: transparent;  }
		97% {stroke-dashoffset: 0;stroke: #4C86C2; }
		100% { stroke: transparent; }
    }

	.st0 {
		-webkit-animation: llenar2 0s backwards;
        -moz-animation: llenar2 0s backwards;
		-o-animation: llenar2 0s backwards;
		animation: llenar2 0s backwards;

		-webkit-animation-delay: 5s;
        -moz-animation-delay: 5s;
        -o-animation-delay: 5s;
        animation-delay: 5s;
	}
	@keyframes llenar2
    {
		from { fill: transparent  }
		to {  }
    }
</style>
<g id="BACKGROUND">
</g>
<g id="TEXTURE">
</g>
<g id="OBJECTS" fill="transparent" stroke="#020B16" stroke-dasharray="2700">
	
		<linearGradient id="SVGID_1_" gradientUnits="userSpaceOnUse" x1="-1004.2894" y1="-102.4928" x2="-1003.0612" y2="-101.3213" gradientTransform="matrix(149 0 0 149.7914 149640 15368.5664)">
		<stop  offset="0" style="stop-color:#2C4D8D"/>
		<stop  offset="5.826729e-02" style="stop-color:#335A99"/>
		<stop  offset="0.2815" style="stop-color:#4C86C2"/>
		<stop  offset="0.4816" style="stop-color:#5EA6E0"/>
		<stop  offset="0.6496" style="stop-color:#69B9F2"/>
		<stop  offset="0.7649" style="stop-color:#6DC0F9"/>
		<stop  offset="0.7718" style="stop-color:#6EC2F9"/>
		<stop  offset="0.8589" style="stop-color:#7CDCFB"/>
		<stop  offset="0.9376" style="stop-color:#84ECFD"/>
		<stop  offset="1" style="stop-color:#87F1FD"/>
	</linearGradient>
	<path class="st0" d="M191.5,57.1v119.6c0,8.5-6.8,15.3-15.3,15.3H23.8c-8.4,0-15.3-6.9-15.3-15.3V57.1c0-1.7,1.4-3.1,3.1-3.1
		s3.1,1.4,3.1,3.1v119.6c0,5.1,4.1,9.2,9.1,9.2H97v-7.2c-3.7-1.6-13.2-5.1-24.4-5.1c-26.7,0-47.8,6-48,6c-0.3,0.1-0.6,0.1-0.8,0.1
		c-0.7,0-1.3-0.2-1.8-0.6c-0.8-0.6-1.2-1.5-1.2-2.4v-135c0-1.4,0.9-2.6,2.2-2.9c0.9-0.3,22.1-6.3,49.6-6.3c15.8,0,28.3,6.2,28.8,6.5
		c1,0.5,1.7,1.6,1.7,2.7V159c9.3-5.3,31-17.2,51.8-24.5v-119C132.5,24.6,111,38,110.8,38.1c-1.4,0.9-3.3,0.5-4.2-1
		c-0.9-1.4-0.5-3.3,1-4.2c0.2-0.2,24.9-15.6,49.3-24.8c0.9-0.4,2-0.2,2.8,0.4c0.8,0.6,1.3,1.5,1.3,2.5v125.7c0,1.3-0.8,2.5-2.1,2.9
		c-26.8,9-57,27.1-57.3,27.3c-0.9,0.6-2.1,0.6-3.1,0c-1-0.5-1.5-1.6-1.5-2.7V43.7c-3.7-1.6-13.3-5.1-24.4-5.1
		c-21.7,0-39.7,3.9-45.8,5.4v128.6c7.4-1.8,24.7-5.3,45.8-5.3c13.1,0,24,4.3,27.6,5.9c4-1.5,17.1-5.9,30.4-5.9
		c20.4,0,35.8,3.3,42.7,5.1V44.2c-1-0.2-2.3-0.5-3.9-0.7c-1.7-0.3-2.8-1.9-2.4-3.6c0.3-1.7,1.9-2.8,3.6-2.5c4.1,0.8,6.5,1.3,6.5,1.3
		c1.4,0.3,2.4,1.6,2.4,3v134.9c0,1-0.5,1.9-1.3,2.5s-1.8,0.7-2.7,0.4c-0.2-0.1-18.2-6-44.8-6c-11.4,0-23,3.6-27.5,5.2v7.1h73.2
		c5,0,9.2-4.1,9.2-9.2V57.1c0-1.7,1.4-3.1,3-3.1C190.1,54,191.5,55.4,191.5,57.1L191.5,57.1z M82.4,64.9
		c-18.8-4.4-40.2,1.2-41.1,1.5c-1.6,0.4-2.6,2.1-2.2,3.8c0.4,1.4,1.6,2.3,2.9,2.3c0.3,0,0.5,0,0.8-0.1C43,72.3,63.6,66.9,81,71
		c1.6,0.4,3.3-0.6,3.7-2.3C85.1,67,84,65.3,82.4,64.9L82.4,64.9z M82.4,83.3c-18.8-4.4-40.2,1.2-41.1,1.5c-1.6,0.4-2.6,2.1-2.2,3.8
		c0.4,1.4,1.6,2.3,2.9,2.3c0.3,0,0.5,0,0.8-0.1c0.2-0.1,20.8-5.5,38.2-1.4c1.6,0.4,3.3-0.6,3.7-2.3C85.1,85.4,84,83.7,82.4,83.3
		L82.4,83.3z M82.4,101.7c-18.8-4.4-40.2,1.2-41.1,1.5c-1.6,0.4-2.6,2.1-2.2,3.8c0.4,1.4,1.6,2.3,2.9,2.3c0.3,0,0.5,0,0.8-0.1
		c0.2-0.1,20.8-5.5,38.2-1.4c1.6,0.4,3.3-0.6,3.7-2.3C85.1,103.7,84,102.1,82.4,101.7L82.4,101.7z M82.4,120.1
		c-18.8-4.4-40.2,1.2-41.1,1.5c-1.6,0.4-2.6,2.1-2.2,3.8c0.4,1.4,1.6,2.3,2.9,2.3c0.3,0,0.5,0,0.8-0.1c0.2-0.1,20.8-5.5,38.2-1.4
		c1.6,0.4,3.3-0.6,3.7-2.3C85.1,122.1,84,120.5,82.4,120.1L82.4,120.1z M82.4,138.5c-18.8-4.4-40.2,1.2-41.1,1.5
		c-1.6,0.4-2.6,2.1-2.2,3.8c0.4,1.4,1.6,2.3,2.9,2.3c0.3,0,0.5,0,0.8-0.1c0.2-0.1,20.8-5.5,38.2-1.4c1.6,0.4,3.3-0.6,3.7-2.3
		C85.1,140.5,84,138.9,82.4,138.5L82.4,138.5z M112.5,132.1c0.5,1.1,1.6,1.7,2.7,1.7c0.5,0,0.9-0.1,1.4-0.3
		c0.2-0.1,18.1-9.3,27-12.1c1.6-0.5,2.5-2.2,2-3.8c-0.5-1.6-2.2-2.5-3.8-2c-9.3,3-27.2,12.1-27.9,12.5
		C112.4,128.7,111.8,130.5,112.5,132.1L112.5,132.1z M112.5,113.7c0.5,1.1,1.6,1.7,2.7,1.7c0.5,0,0.9-0.1,1.4-0.3
		c0.2-0.1,18.1-9.3,27-12.1c1.6-0.5,2.5-2.2,2-3.8c-0.5-1.6-2.2-2.5-3.8-2c-9.3,3-27.2,12.1-27.9,12.5
		C112.4,110.3,111.8,112.1,112.5,113.7L112.5,113.7z M112.5,95.3c0.5,1.1,1.6,1.7,2.7,1.7c0.5,0,0.9-0.1,1.4-0.3
		c0.2-0.1,18.1-9.3,27-12.1c1.6-0.5,2.5-2.2,2-3.8c-0.5-1.6-2.2-2.5-3.8-2c-9.3,3-27.2,12.1-27.9,12.5
		C112.4,91.9,111.8,93.7,112.5,95.3L112.5,95.3z M112.5,76.9c0.5,1.1,1.6,1.7,2.7,1.7c0.5,0,0.9-0.1,1.4-0.3
		c0.2-0.1,18.1-9.3,27-12.1c1.6-0.5,2.5-2.2,2-3.8s-2.2-2.5-3.8-2c-9.3,3-27.2,12.1-27.9,12.5C112.4,73.5,111.8,75.4,112.5,76.9
		L112.5,76.9z M115.3,60.1c0.5,0,0.9-0.1,1.4-0.3c0.2-0.1,18.1-9.3,27-12.1c1.6-0.5,2.5-2.2,2-3.8s-2.2-2.5-3.8-2
		c-9.3,3-27.2,12.1-27.9,12.5c-1.5,0.8-2.1,2.6-1.3,4.1C113.1,59.5,114.1,60.1,115.3,60.1L115.3,60.1z"/>
</g>
<g id="DESIGNED_BY_FREEPIK">
</g>
</svg>
