<?xml version="1.0" encoding="utf-8"?>
<!-- Generator: Adobe Illustrator 22.0.1, SVG Export Plug-In . SVG Version: 6.00 Build 0)  -->
<svg version="1.1" id="Capa_1" xmlns="http://www.w3.org/2000/svg" xmlns:xlink="http://www.w3.org/1999/xlink" x="0px" y="0px"
	 viewBox="0 0 200 200" style="enable-background:new 0 0 200 200;" xml:space="preserve">
<style type="text/css">
	.st0{fill:none;stroke:#FFFFFF;stroke-width:6;stroke-miterlimit:10;}
	.st1{fill:#FFFFFF;}
</style>
<path class="st0" d="M196.8,100c0,53.2-43.1,96.3-96.3,96.3h0c-53.2,0-96.3-43.1-96.3-96.3"/>
<path class="st0" d="M4.2,100c0-53.2,43.1-96.3,96.3-96.3h0c53.2,0,96.3,43.1,96.3,96.3"/>
<path class="st1" d="M44.1,72V128c0,7.7,6.3,14,14,14H142c7.7,0,14-6.3,14-14V72c0-7.7-6.3-14-14-14H58C50.3,58,44.1,64.3,44.1,72z
	 M51.3,129.3c-0.1-0.5-0.3-0.9-0.3-1.4V72c0-0.7,0.2-1.4,0.4-2l29.6,25.4L51.3,129.3z M142,65c0.5,0,0.9,0.2,1.3,0.3L100,102.4
	L56.7,65.3c0.4-0.1,0.8-0.3,1.3-0.3H142z M118.9,95.4L148.5,70c0.2,0.7,0.4,1.3,0.4,2V128c0,0.5-0.2,0.9-0.3,1.4L118.9,95.4z
	 M58,135c-0.7,0-1.4-0.2-2-0.4l30.3-34.6l11.4,9.7c0.7,0.6,1.5,0.8,2.3,0.8c0.8,0,1.6-0.3,2.3-0.8l11.4-9.7l30.3,34.6
	c-0.6,0.2-1.3,0.4-2,0.4H58z"/>
</svg>
