<?xml version="1.0" encoding="utf-8"?>
<!-- Generator: Adobe Illustrator 22.0.1, SVG Export Plug-In . SVG Version: 6.00 Build 0)  -->
<svg version="1.1" id="Capa_1" xmlns="http://www.w3.org/2000/svg" xmlns:xlink="http://www.w3.org/1999/xlink" x="0px" y="0px"
	 viewBox="0 0 200 200" style="enable-background:new 0 0 200 200;" xml:space="preserve">
<style type="text/css">
	.st0{fill:none;stroke:#FFFFFF;stroke-width:6;stroke-miterlimit:10;}
	.st1{fill:#FFFFFF;}
</style>
<g>
	<g>
		<g>
			<path class="st0" d="M100,196.3L100,196.3c-53.2,0-96.3-43.1-96.3-96.3l0,0C3.7,46.8,46.8,3.7,100,3.7l0,0
				c53.2,0,96.3,43.1,96.3,96.3l0,0C196.3,153.2,153.2,196.3,100,196.3z"/>
		</g>
		<g>
			<g>
				<g>
					<path class="st1" d="M146.6,106.5v33.4h-19.4v-31.1c0-7.8-2.8-13.2-9.8-13.2c-5.3,0-8.5,3.6-9.9,7.1c-0.5,1.2-0.6,3-0.6,4.7
						v32.5H87.5c0,0,0.3-52.8,0-58.2h19.4V90c0,0.1-0.1,0.1-0.1,0.2h0.1V90c2.6-4,7.2-9.6,17.4-9.6C137,80.3,146.6,88.7,146.6,106.5
						L146.6,106.5z M57.4,139.9h19.4V81.7H57.4V139.9z M77.4,62c0,5.5-4.5,10-10,10s-10-4.5-10-10s4.5-10,10-10S77.4,56.5,77.4,62z"
						/>
				</g>
			</g>
		</g>
	</g>
</g>
</svg>
