<?xml version="1.0" encoding="utf-8"?>
<!-- Generator: Adobe Illustrator 22.0.1, SVG Export Plug-In . SVG Version: 6.00 Build 0)  -->
<svg version="1.1" id="Capa_1" xmlns="http://www.w3.org/2000/svg" xmlns:xlink="http://www.w3.org/1999/xlink" x="0px" y="0px"
	 viewBox="0 0 170 200" style="enable-background:new 0 0 170 200;" xml:space="preserve">
<style type="text/css">
	.st0{fill:#E54537;}
</style>
<path class="st0" d="M45.9,56.6c0.8,0,1.6-0.2,2.4-0.5l84.3-39.2c2.8-1.3,4-4.7,2.7-7.5c-1.3-2.8-4.7-4-7.5-2.7L43.5,45.9
	c-2.8,1.3-4,4.7-2.7,7.5C41.8,55.4,43.8,56.6,45.9,56.6L45.9,56.6z M127.8,30.6L43.5,69.8c-2.8,1.3-4,4.7-2.7,7.5
	c1,2.1,3,3.3,5.1,3.3c0.8,0,1.6-0.2,2.4-0.5l84.3-39.2c2.8-1.3,4-4.7,2.7-7.5C134,30.5,130.6,29.3,127.8,30.6L127.8,30.6z
	 M127.8,54.8L43.5,94c-2.8,1.3-4,4.7-2.7,7.5c1,2.1,3,3.3,5.1,3.3c0.8,0,1.6-0.2,2.4-0.5L132.5,65c2.8-1.3,4-4.7,2.7-7.5
	C134,54.7,130.6,53.5,127.8,54.8L127.8,54.8z M45.9,32.7c0.8,0,1.6-0.2,2.4-0.5l38.8-18.1c2.8-1.3,4-4.7,2.7-7.5
	c-1.3-2.8-4.7-4-7.5-2.7L43.5,22c-2.8,1.3-4,4.7-2.7,7.5C41.8,31.5,43.8,32.7,45.9,32.7z M127.8,78.7L98,92.7
	c-2,0.9-3.2,2.9-3.2,5.1V126h-13v-21c0-3.1-2.5-5.6-5.6-5.6c-3.1,0-5.6,2.5-5.6,5.6v21h-8.1c-2.4,0-4.2,2.2-3.8,4.5l1.9,10.6
	c0.3,1.8,1.9,3.2,3.8,3.2h19.8L63.1,148c-1.5,0.3-2.5,1.7-2.3,3.3c0.2,1.3,1.4,2.3,2.8,2.3c0.2,0,0.3,0,0.5,0l48-8.7
	c0.7-0.1,1.4-0.5,1.8-1.1c1-0.6,1.7-1.6,1.9-2.8l1.6-10.6c0.4-2.3-1.4-4.4-3.8-4.4H106v-24.6l26.5-12.5c2.8-1.3,4-4.7,2.7-7.5
	C133.9,78.6,130.6,77.4,127.8,78.7L127.8,78.7z M111.2,153.7l-48,8.7c-1.5,0.3-2.5,1.7-2.3,3.3c0.2,1.3,1.4,2.3,2.8,2.3
	c0.2,0,0.3,0,0.5,0l48-8.7c1.5-0.3,2.5-1.7,2.3-3.3c0,0,0,0,0,0C114.2,154.4,112.7,153.4,111.2,153.7L111.2,153.7z M111.2,168.5
	l-48,8.7c-1.5,0.3-2.5,1.7-2.3,3.3c0,0,0,0,0,0c0.2,1.3,1.4,2.3,2.8,2.3c0.2,0,0.3,0,0.5,0l48-8.7c1.5-0.3,2.5-1.7,2.3-3.3
	c0,0,0,0,0,0C114.2,169.3,112.7,168.3,111.2,168.5L111.2,168.5z M105.4,183.6l-35.8,6.2c-1.5,0.3-2.5,1.7-2.3,3.3
	c0.3,1.5,1.7,2.5,3.2,2.3l35.8-6.2c1.5-0.3,2.6-1.7,2.3-3.3C108.4,184.3,106.9,183.3,105.4,183.6L105.4,183.6z"/>
</svg>
