<?xml version="1.0" encoding="utf-8"?>
<!-- Generator: Adobe Illustrator 22.0.1, SVG Export Plug-In . SVG Version: 6.00 Build 0)  -->
<svg version="1.1" id="Capa_1" xmlns="http://www.w3.org/2000/svg" xmlns:xlink="http://www.w3.org/1999/xlink" x="0px" y="0px"
	 viewBox="0 0 200 200" style="enable-background:new 0 0 200 200;" xml:space="preserve">
<style type="text/css">
	.st0{fill:url(#XMLID_2_);}
	.st1{fill:url(#XMLID_3_);}
	.st2{fill:url(#XMLID_4_);}
	.st3{fill:url(#XMLID_5_);}
	.st4{fill:url(#XMLID_6_);}
	.st5{fill:url(#XMLID_7_);}
	.st6{fill:url(#XMLID_8_);}
	.st7{fill:url(#XMLID_9_);}
	.st8{fill:url(#XMLID_11_);}
	.st9{fill:url(#XMLID_12_);}
	.st10{fill:url(#XMLID_13_);}
	.st11{fill:url(#XMLID_14_);}
	.st12{fill:url(#XMLID_15_);}
	.st13{fill:url(#XMLID_16_);}
	.st14{fill:url(#XMLID_17_);}
	.st15{fill:url(#XMLID_18_);}
	.st16{fill:url(#XMLID_19_);}
	.st17{fill:url(#XMLID_20_);}
	.st18{fill:url(#XMLID_21_);}
	.st19{fill:url(#XMLID_22_);}
	.st20{fill:url(#XMLID_23_);}
</style>
<g id="BACKGROUND">
</g>
<g id="TEXTURE">
</g>
<g id="OBJECTS">
	<g id="XMLID_217_">
		<g id="XMLID_174_">
			
				<linearGradient id="XMLID_2_" gradientUnits="userSpaceOnUse" x1="54" y1="6.3702" x2="54" y2="213.7848" gradientTransform="matrix(1 0 0 -1 0 202)">
				<stop  offset="0" style="stop-color:#2C4D8D"/>
				<stop  offset="5.826729e-02" style="stop-color:#335A99"/>
				<stop  offset="0.2815" style="stop-color:#4C86C2"/>
				<stop  offset="0.4816" style="stop-color:#5EA6E0"/>
				<stop  offset="0.6496" style="stop-color:#69B9F2"/>
				<stop  offset="0.7649" style="stop-color:#6DC0F9"/>
				<stop  offset="0.7718" style="stop-color:#6EC2F9"/>
				<stop  offset="0.8589" style="stop-color:#7CDCFB"/>
				<stop  offset="0.9376" style="stop-color:#84ECFD"/>
				<stop  offset="1" style="stop-color:#87F1FD"/>
			</linearGradient>
			<path id="XMLID_223_" class="st0" d="M99.8,193c-24.5-0.3-47.6-10-64.9-27.5S8.1,124.9,8.1,100.3s9.5-47.7,26.8-65.2
				C52.2,17.7,75.3,8,99.8,7.7l0.1,7.3c-46.6,0.5-84.5,38.8-84.5,85.4s37.9,84.9,84.5,85.4L99.8,193z"/>
		</g>
		<g id="XMLID_10_">
			
				<linearGradient id="XMLID_3_" gradientUnits="userSpaceOnUse" x1="112.8521" y1="6.3705" x2="112.8521" y2="213.7853" gradientTransform="matrix(1 0 0 -1 0 202)">
				<stop  offset="0" style="stop-color:#2C4D8D"/>
				<stop  offset="5.826729e-02" style="stop-color:#335A99"/>
				<stop  offset="0.2815" style="stop-color:#4C86C2"/>
				<stop  offset="0.4816" style="stop-color:#5EA6E0"/>
				<stop  offset="0.6496" style="stop-color:#69B9F2"/>
				<stop  offset="0.7649" style="stop-color:#6DC0F9"/>
				<stop  offset="0.7718" style="stop-color:#6EC2F9"/>
				<stop  offset="0.8589" style="stop-color:#7CDCFB"/>
				<stop  offset="0.9376" style="stop-color:#84ECFD"/>
				<stop  offset="1" style="stop-color:#87F1FD"/>
			</linearGradient>
			<path id="XMLID_221_" class="st1" d="M134.7,81.8H91c-2,0-3.6-1.6-3.6-3.6s1.6-3.6,3.6-3.6h40.1V35.9c0-2,1.6-3.6,3.6-3.6
				s3.6,1.6,3.6,3.6v42.3C138.4,80.1,136.7,81.8,134.7,81.8z"/>
		</g>
		<g id="XMLID_72_">
			
				<linearGradient id="XMLID_4_" gradientUnits="userSpaceOnUse" x1="127.4" y1="6.37" x2="127.4" y2="213.7859" gradientTransform="matrix(1 0 0 -1 0 202)">
				<stop  offset="0" style="stop-color:#2C4D8D"/>
				<stop  offset="5.826729e-02" style="stop-color:#335A99"/>
				<stop  offset="0.2815" style="stop-color:#4C86C2"/>
				<stop  offset="0.4816" style="stop-color:#5EA6E0"/>
				<stop  offset="0.6496" style="stop-color:#69B9F2"/>
				<stop  offset="0.7649" style="stop-color:#6DC0F9"/>
				<stop  offset="0.7718" style="stop-color:#6EC2F9"/>
				<stop  offset="0.8589" style="stop-color:#7CDCFB"/>
				<stop  offset="0.9376" style="stop-color:#84ECFD"/>
				<stop  offset="1" style="stop-color:#87F1FD"/>
			</linearGradient>
			<path id="XMLID_220_" class="st2" d="M177.2,98.6H77.6c-2,0-3.6-1.6-3.6-3.6s1.6-3.6,3.6-3.6h96V77.8c0-2,1.6-3.6,3.6-3.6
				s3.6,1.6,3.6,3.6V95C180.8,97,179.2,98.6,177.2,98.6z"/>
		</g>
		<g id="XMLID_129_">
			
				<linearGradient id="XMLID_5_" gradientUnits="userSpaceOnUse" x1="125.0521" y1="6.3709" x2="125.0521" y2="213.7849" gradientTransform="matrix(1 0 0 -1 0 202)">
				<stop  offset="0" style="stop-color:#2C4D8D"/>
				<stop  offset="5.826729e-02" style="stop-color:#335A99"/>
				<stop  offset="0.2815" style="stop-color:#4C86C2"/>
				<stop  offset="0.4816" style="stop-color:#5EA6E0"/>
				<stop  offset="0.6496" style="stop-color:#69B9F2"/>
				<stop  offset="0.7649" style="stop-color:#6DC0F9"/>
				<stop  offset="0.7718" style="stop-color:#6EC2F9"/>
				<stop  offset="0.8589" style="stop-color:#7CDCFB"/>
				<stop  offset="0.9376" style="stop-color:#84ECFD"/>
				<stop  offset="1" style="stop-color:#87F1FD"/>
			</linearGradient>
			<path id="XMLID_219_" class="st3" d="M174.5,115.5H75.6c-2,0-3.6-1.6-3.6-3.6s1.6-3.6,3.6-3.6h98.9c2,0,3.6,1.6,3.6,3.6
				C178.2,113.9,176.5,115.5,174.5,115.5z"/>
		</g>
		<g id="XMLID_130_">
			
				<linearGradient id="XMLID_6_" gradientUnits="userSpaceOnUse" x1="122.2021" y1="6.3705" x2="122.2021" y2="213.7852" gradientTransform="matrix(1 0 0 -1 0 202)">
				<stop  offset="0" style="stop-color:#2C4D8D"/>
				<stop  offset="5.826729e-02" style="stop-color:#335A99"/>
				<stop  offset="0.2815" style="stop-color:#4C86C2"/>
				<stop  offset="0.4816" style="stop-color:#5EA6E0"/>
				<stop  offset="0.6496" style="stop-color:#69B9F2"/>
				<stop  offset="0.7649" style="stop-color:#6DC0F9"/>
				<stop  offset="0.7718" style="stop-color:#6EC2F9"/>
				<stop  offset="0.8589" style="stop-color:#7CDCFB"/>
				<stop  offset="0.9376" style="stop-color:#84ECFD"/>
				<stop  offset="1" style="stop-color:#87F1FD"/>
			</linearGradient>
			<path id="XMLID_218_" class="st4" d="M154.4,156.8h-14.9c-2,0-3.6-1.6-3.6-3.6v-20.1H90c-2,0-3.6-1.6-3.6-3.6s1.6-3.6,3.6-3.6
				h49.6c2,0,3.6,1.6,3.6,3.6v20.1h11.2c2,0,3.6,1.6,3.6,3.6C158.1,155.2,156.4,156.8,154.4,156.8z"/>
		</g>
		<g id="XMLID_159_">
			
				<linearGradient id="XMLID_7_" gradientUnits="userSpaceOnUse" x1="104" y1="6.3703" x2="104" y2="213.7844" gradientTransform="matrix(1 0 0 -1 0 202)">
				<stop  offset="0" style="stop-color:#2C4D8D"/>
				<stop  offset="5.826729e-02" style="stop-color:#335A99"/>
				<stop  offset="0.2815" style="stop-color:#4C86C2"/>
				<stop  offset="0.4816" style="stop-color:#5EA6E0"/>
				<stop  offset="0.6496" style="stop-color:#69B9F2"/>
				<stop  offset="0.7649" style="stop-color:#6DC0F9"/>
				<stop  offset="0.7718" style="stop-color:#6EC2F9"/>
				<stop  offset="0.8589" style="stop-color:#7CDCFB"/>
				<stop  offset="0.9376" style="stop-color:#84ECFD"/>
				<stop  offset="1" style="stop-color:#87F1FD"/>
			</linearGradient>
			<path id="XMLID_210_" class="st5" d="M108.5,188.9c0,2.5-2,4.5-4.5,4.5s-4.5-2-4.5-4.5s2-4.5,4.5-4.5
				C106.5,184.5,108.5,186.5,108.5,188.9z"/>
			
				<linearGradient id="XMLID_8_" gradientUnits="userSpaceOnUse" x1="104.1" y1="6.3703" x2="104.1" y2="213.7854" gradientTransform="matrix(1 0 0 -1 0 202)">
				<stop  offset="0" style="stop-color:#2C4D8D"/>
				<stop  offset="5.826729e-02" style="stop-color:#335A99"/>
				<stop  offset="0.2815" style="stop-color:#4C86C2"/>
				<stop  offset="0.4816" style="stop-color:#5EA6E0"/>
				<stop  offset="0.6496" style="stop-color:#69B9F2"/>
				<stop  offset="0.7649" style="stop-color:#6DC0F9"/>
				<stop  offset="0.7718" style="stop-color:#6EC2F9"/>
				<stop  offset="0.8589" style="stop-color:#7CDCFB"/>
				<stop  offset="0.9376" style="stop-color:#84ECFD"/>
				<stop  offset="1" style="stop-color:#87F1FD"/>
			</linearGradient>
			<path id="XMLID_214_" class="st6" d="M104.1,197c-4.5,0-8.1-3.6-8.1-8.1s3.6-8.1,8.1-8.1s8.1,3.6,8.1,8.1S108.5,197,104.1,197z
				 M104.1,188.1c-0.4,0-0.8,0.4-0.8,0.8c0,0.4,0.4,0.8,0.8,0.8s0.8-0.4,0.8-0.8S104.5,188.1,104.1,188.1z"/>
		</g>
		<g id="XMLID_140_">
			
				<linearGradient id="XMLID_9_" gradientUnits="userSpaceOnUse" x1="104" y1="6.3715" x2="104" y2="213.7856" gradientTransform="matrix(1 0 0 -1 0 202)">
				<stop  offset="0" style="stop-color:#2C4D8D"/>
				<stop  offset="5.826729e-02" style="stop-color:#335A99"/>
				<stop  offset="0.2815" style="stop-color:#4C86C2"/>
				<stop  offset="0.4816" style="stop-color:#5EA6E0"/>
				<stop  offset="0.6496" style="stop-color:#69B9F2"/>
				<stop  offset="0.7649" style="stop-color:#6DC0F9"/>
				<stop  offset="0.7718" style="stop-color:#6EC2F9"/>
				<stop  offset="0.8589" style="stop-color:#7CDCFB"/>
				<stop  offset="0.9376" style="stop-color:#84ECFD"/>
				<stop  offset="1" style="stop-color:#87F1FD"/>
			</linearGradient>
			<path id="XMLID_131_" class="st7" d="M108.5,11.1c0,2.5-2,4.5-4.5,4.5s-4.5-2-4.5-4.5s2-4.5,4.5-4.5
				C106.5,6.6,108.5,8.6,108.5,11.1z"/>
			
				<linearGradient id="XMLID_11_" gradientUnits="userSpaceOnUse" x1="104.1" y1="6.3698" x2="104.1" y2="213.7849" gradientTransform="matrix(1 0 0 -1 0 202)">
				<stop  offset="0" style="stop-color:#2C4D8D"/>
				<stop  offset="5.826729e-02" style="stop-color:#335A99"/>
				<stop  offset="0.2815" style="stop-color:#4C86C2"/>
				<stop  offset="0.4816" style="stop-color:#5EA6E0"/>
				<stop  offset="0.6496" style="stop-color:#69B9F2"/>
				<stop  offset="0.7649" style="stop-color:#6DC0F9"/>
				<stop  offset="0.7718" style="stop-color:#6EC2F9"/>
				<stop  offset="0.8589" style="stop-color:#7CDCFB"/>
				<stop  offset="0.9376" style="stop-color:#84ECFD"/>
				<stop  offset="1" style="stop-color:#87F1FD"/>
			</linearGradient>
			<path id="XMLID_207_" class="st8" d="M104.1,19.2c-4.5,0-8.1-3.6-8.1-8.1S99.6,3,104.1,3s8.1,3.6,8.1,8.1S108.5,19.2,104.1,19.2z
				 M104.1,10.3c-0.4,0-0.8,0.4-0.8,0.8c0,0.4,0.4,0.8,0.8,0.8s0.8-0.4,0.8-0.8C104.9,10.6,104.5,10.3,104.1,10.3z"/>
		</g>
		<g id="XMLID_78_">
			<g id="XMLID_172_">
				
					<linearGradient id="XMLID_12_" gradientUnits="userSpaceOnUse" x1="55.3031" y1="6.3703" x2="55.3031" y2="213.7854" gradientTransform="matrix(1 0 0 -1 0 202)">
					<stop  offset="0" style="stop-color:#2C4D8D"/>
					<stop  offset="5.826729e-02" style="stop-color:#335A99"/>
					<stop  offset="0.2815" style="stop-color:#4C86C2"/>
					<stop  offset="0.4816" style="stop-color:#5EA6E0"/>
					<stop  offset="0.6496" style="stop-color:#69B9F2"/>
					<stop  offset="0.7649" style="stop-color:#6DC0F9"/>
					<stop  offset="0.7718" style="stop-color:#6EC2F9"/>
					<stop  offset="0.8589" style="stop-color:#7CDCFB"/>
					<stop  offset="0.9376" style="stop-color:#84ECFD"/>
					<stop  offset="1" style="stop-color:#87F1FD"/>
				</linearGradient>
				<path id="XMLID_206_" class="st9" d="M54.3,121.2c-1.7,0-3.5-0.3-5.6-1c-11.3-4-22.5-18.5-23.7-25.9c-0.5-2.8-2.4-3.6-7.3-5
					c-1.7-0.5-3.4-1-5.1-1.7c-1.8-0.8-2.7-3-1.9-4.8s3-2.7,4.8-1.9c1.2,0.5,2.7,1,4.2,1.4c4.7,1.4,11.1,3.2,12.4,10.8
					c0.8,4.8,10.1,17.2,19,20.3c3.5,1.2,5.4,0.4,6.5-0.5c-0.2-1.9-3.7-6.7-5.8-9.6c-4.6-6.3-8.5-11.8-6.9-16.6
					c0.5-1.5,1.7-3.5,4.9-4.6c4.8-1.6,7.9-1.4,9.9-1.2c1.9,0.1,2.4,0.2,6-5.4c4.9-7.6,14-9.7,20.6-11.2c2.4-0.5,6-1.4,6.9-2.1
					c-0.1-2-2.2-4.7-5.2-6.7c-3-1.9-7.6-3.4-11.5-1.7c-7.7,3.5-14.5,1-16.9-3.2c-1.7-2.9-1.5-7.2,2.6-10.3c2.9-2.1,4.7-5.5,4.9-7
					c-0.4,0-1,0-2,0.2c-6.2,1.2-12.9,0.7-18.2-1.5c-1.9-0.8-2.7-2.9-2-4.8c0.8-1.9,2.9-2.7,4.8-2c3.9,1.6,9.2,2,13.9,1.1
					c6.8-1.4,9.2,1.7,10.1,3.6c2.4,5.3-2.7,12.8-7.2,16.2c-0.6,0.4-0.7,0.7-0.8,0.8c0,0,0.3,0.4,1,0.7c0.6,0.3,3,1.1,6.6-0.5
					c5.5-2.5,12.4-1.7,18.4,2.2c5.2,3.4,8.5,8.3,8.5,12.9c0,6.2-6.7,7.7-12.6,9.1c-6,1.4-12.8,2.9-16.1,8c-5,7.9-7.6,9.1-12.6,8.8
					c-1.7-0.1-3.7-0.2-7.2,0.9c-0.1,0-0.2,0.1-0.2,0.1c0.2,1.9,3.9,7.1,5.9,9.9c5.1,7.1,10.4,14.4,5,19.1
					C60.9,119.6,58.1,121.2,54.3,121.2z"/>
			</g>
			<g id="XMLID_147_">
				
					<linearGradient id="XMLID_13_" gradientUnits="userSpaceOnUse" x1="72.5157" y1="6.3702" x2="72.5157" y2="213.7852" gradientTransform="matrix(1 0 0 -1 0 202)">
					<stop  offset="0" style="stop-color:#2C4D8D"/>
					<stop  offset="5.826729e-02" style="stop-color:#335A99"/>
					<stop  offset="0.2815" style="stop-color:#4C86C2"/>
					<stop  offset="0.4816" style="stop-color:#5EA6E0"/>
					<stop  offset="0.6496" style="stop-color:#69B9F2"/>
					<stop  offset="0.7649" style="stop-color:#6DC0F9"/>
					<stop  offset="0.7718" style="stop-color:#6EC2F9"/>
					<stop  offset="0.8589" style="stop-color:#7CDCFB"/>
					<stop  offset="0.9376" style="stop-color:#84ECFD"/>
					<stop  offset="1" style="stop-color:#87F1FD"/>
				</linearGradient>
				<path id="XMLID_205_" class="st10" d="M47.7,175.5c-0.8,0-1.5-0.2-2.2-0.7c-3.8-2.9-9.9-10.7-6-19.9c2.9-6.9,7.4-10,11-12.6
					c1.7-1.2,3.2-2.3,4.3-3.5c1.2-1.3,2.1-3.8,3-6.2c1.7-4.6,3.8-10.3,9.5-10.6c4.3-0.1,7.3,3.6,10.8,7.9c3.3,4.1,7.1,8.8,12.1,10.6
					c1.9,0.7,4.2,0.9,6.4,1.1c2.9,0.2,5.9,0.5,8.4,1.9c1.7,1,2.3,3.3,1.3,5s-3.3,2.3-5,1.3c-1-0.6-3.2-0.8-5.3-0.9
					c-2.6-0.2-5.5-0.4-8.3-1.5c-7-2.5-11.6-8.3-15.3-12.9c-1.6-2-4-5-5-5.2c-0.7,0-2.2,4.1-2.9,5.8c-1.1,3-2.3,6.1-4.3,8.5
					c-1.7,1.9-3.7,3.4-5.6,4.7c-3.3,2.3-6.4,4.5-8.5,9.4c-2.7,6.4,3.6,11.3,3.7,11.3c1.6,1.2,1.9,3.5,0.7,5.1
					C49.9,175.1,48.8,175.5,47.7,175.5z"/>
			</g>
		</g>
		<g id="XMLID_146_">
			
				<linearGradient id="XMLID_14_" gradientUnits="userSpaceOnUse" x1="82.7" y1="6.3705" x2="82.7" y2="213.7851" gradientTransform="matrix(1 0 0 -1 0 202)">
				<stop  offset="0" style="stop-color:#2C4D8D"/>
				<stop  offset="5.826729e-02" style="stop-color:#335A99"/>
				<stop  offset="0.2815" style="stop-color:#4C86C2"/>
				<stop  offset="0.4816" style="stop-color:#5EA6E0"/>
				<stop  offset="0.6496" style="stop-color:#69B9F2"/>
				<stop  offset="0.7649" style="stop-color:#6DC0F9"/>
				<stop  offset="0.7718" style="stop-color:#6EC2F9"/>
				<stop  offset="0.8589" style="stop-color:#7CDCFB"/>
				<stop  offset="0.9376" style="stop-color:#84ECFD"/>
				<stop  offset="1" style="stop-color:#87F1FD"/>
			</linearGradient>
			<path id="XMLID_203_" class="st11" d="M82.7,40.4c-2,0-3.6-1.6-3.6-3.6v-12c0-2,1.6-3.6,3.6-3.6s3.6,1.6,3.6,3.6v11.9
				C86.3,38.7,84.7,40.4,82.7,40.4z"/>
		</g>
		<g id="XMLID_177_">
			
				<linearGradient id="XMLID_15_" gradientUnits="userSpaceOnUse" x1="93" y1="6.3704" x2="93" y2="213.7853" gradientTransform="matrix(1 0 0 -1 0 202)">
				<stop  offset="0" style="stop-color:#2C4D8D"/>
				<stop  offset="5.826729e-02" style="stop-color:#335A99"/>
				<stop  offset="0.2815" style="stop-color:#4C86C2"/>
				<stop  offset="0.4816" style="stop-color:#5EA6E0"/>
				<stop  offset="0.6496" style="stop-color:#69B9F2"/>
				<stop  offset="0.7649" style="stop-color:#6DC0F9"/>
				<stop  offset="0.7718" style="stop-color:#6EC2F9"/>
				<stop  offset="0.8589" style="stop-color:#7CDCFB"/>
				<stop  offset="0.9376" style="stop-color:#84ECFD"/>
				<stop  offset="1" style="stop-color:#87F1FD"/>
			</linearGradient>
			<path id="XMLID_201_" class="st12" d="M93,45.8c-2,0-3.6-1.6-3.6-3.6V24.8c0-2,1.6-3.6,3.6-3.6s3.6,1.6,3.6,3.6v17.3
				C96.6,44.2,95,45.8,93,45.8z"/>
		</g>
		<g id="XMLID_179_">
			
				<linearGradient id="XMLID_16_" gradientUnits="userSpaceOnUse" x1="103.8021" y1="6.3705" x2="103.8021" y2="213.7854" gradientTransform="matrix(1 0 0 -1 0 202)">
				<stop  offset="0" style="stop-color:#2C4D8D"/>
				<stop  offset="5.826729e-02" style="stop-color:#335A99"/>
				<stop  offset="0.2815" style="stop-color:#4C86C2"/>
				<stop  offset="0.4816" style="stop-color:#5EA6E0"/>
				<stop  offset="0.6496" style="stop-color:#69B9F2"/>
				<stop  offset="0.7649" style="stop-color:#6DC0F9"/>
				<stop  offset="0.7718" style="stop-color:#6EC2F9"/>
				<stop  offset="0.8589" style="stop-color:#7CDCFB"/>
				<stop  offset="0.9376" style="stop-color:#84ECFD"/>
				<stop  offset="1" style="stop-color:#87F1FD"/>
			</linearGradient>
			<path id="XMLID_192_" class="st13" d="M103.8,55.2c-2,0-3.6-1.6-3.6-3.6V24.8c0-2,1.6-3.6,3.6-3.6s3.6,1.6,3.6,3.6v26.7
				C107.5,53.5,105.8,55.2,103.8,55.2z"/>
		</g>
		<g id="XMLID_175_">
			
				<linearGradient id="XMLID_17_" gradientUnits="userSpaceOnUse" x1="88.5521" y1="6.3699" x2="88.5521" y2="213.7871" gradientTransform="matrix(1 0 0 -1 0 202)">
				<stop  offset="0" style="stop-color:#2C4D8D"/>
				<stop  offset="5.826729e-02" style="stop-color:#335A99"/>
				<stop  offset="0.2815" style="stop-color:#4C86C2"/>
				<stop  offset="0.4816" style="stop-color:#5EA6E0"/>
				<stop  offset="0.6496" style="stop-color:#69B9F2"/>
				<stop  offset="0.7649" style="stop-color:#6DC0F9"/>
				<stop  offset="0.7718" style="stop-color:#6EC2F9"/>
				<stop  offset="0.8589" style="stop-color:#7CDCFB"/>
				<stop  offset="0.9376" style="stop-color:#84ECFD"/>
				<stop  offset="1" style="stop-color:#87F1FD"/>
			</linearGradient>
			<path id="XMLID_189_" class="st14" d="M97.2,161.2H79.9c-2,0-3.6-1.6-3.6-3.6s1.6-3.6,3.6-3.6h17.3c2,0,3.6,1.6,3.6,3.6
				C100.9,159.6,99.2,161.2,97.2,161.2z"/>
		</g>
		<g id="XMLID_182_">
			
				<linearGradient id="XMLID_18_" gradientUnits="userSpaceOnUse" x1="98.7" y1="6.3705" x2="98.7" y2="213.7845" gradientTransform="matrix(1 0 0 -1 0 202)">
				<stop  offset="0" style="stop-color:#2C4D8D"/>
				<stop  offset="5.826729e-02" style="stop-color:#335A99"/>
				<stop  offset="0.2815" style="stop-color:#4C86C2"/>
				<stop  offset="0.4816" style="stop-color:#5EA6E0"/>
				<stop  offset="0.6496" style="stop-color:#69B9F2"/>
				<stop  offset="0.7649" style="stop-color:#6DC0F9"/>
				<stop  offset="0.7718" style="stop-color:#6EC2F9"/>
				<stop  offset="0.8589" style="stop-color:#7CDCFB"/>
				<stop  offset="0.9376" style="stop-color:#84ECFD"/>
				<stop  offset="1" style="stop-color:#87F1FD"/>
			</linearGradient>
			<path id="XMLID_188_" class="st15" d="M105.9,170.9H91.5c-2,0-3.6-1.6-3.6-3.6s1.6-3.6,3.6-3.6h14.4c2,0,3.6,1.6,3.6,3.6
				C109.5,169.3,107.9,170.9,105.9,170.9z"/>
		</g>
		<g id="XMLID_183_">
			
				<linearGradient id="XMLID_19_" gradientUnits="userSpaceOnUse" x1="89" y1="6.3701" x2="89" y2="213.7873" gradientTransform="matrix(1 0 0 -1 0 202)">
				<stop  offset="0" style="stop-color:#2C4D8D"/>
				<stop  offset="5.826729e-02" style="stop-color:#335A99"/>
				<stop  offset="0.2815" style="stop-color:#4C86C2"/>
				<stop  offset="0.4816" style="stop-color:#5EA6E0"/>
				<stop  offset="0.6496" style="stop-color:#69B9F2"/>
				<stop  offset="0.7649" style="stop-color:#6DC0F9"/>
				<stop  offset="0.7718" style="stop-color:#6EC2F9"/>
				<stop  offset="0.8589" style="stop-color:#7CDCFB"/>
				<stop  offset="0.9376" style="stop-color:#84ECFD"/>
				<stop  offset="1" style="stop-color:#87F1FD"/>
			</linearGradient>
			<path id="XMLID_155_" class="st16" d="M96.2,180.5H81.8c-2,0-3.6-1.6-3.6-3.6s1.6-3.6,3.6-3.6h14.4c2,0,3.6,1.6,3.6,3.6
				S98.2,180.5,96.2,180.5z"/>
		</g>
		<g id="XMLID_80_">
			<g id="XMLID_185_">
				
					<linearGradient id="XMLID_20_" gradientUnits="userSpaceOnUse" x1="134.9" y1="6.37" x2="134.9" y2="213.7863" gradientTransform="matrix(1 0 0 -1 0 202)">
					<stop  offset="0" style="stop-color:#2C4D8D"/>
					<stop  offset="5.826729e-02" style="stop-color:#335A99"/>
					<stop  offset="0.2815" style="stop-color:#4C86C2"/>
					<stop  offset="0.4816" style="stop-color:#5EA6E0"/>
					<stop  offset="0.6496" style="stop-color:#69B9F2"/>
					<stop  offset="0.7649" style="stop-color:#6DC0F9"/>
					<stop  offset="0.7718" style="stop-color:#6EC2F9"/>
					<stop  offset="0.8589" style="stop-color:#7CDCFB"/>
					<stop  offset="0.9376" style="stop-color:#84ECFD"/>
					<stop  offset="1" style="stop-color:#87F1FD"/>
				</linearGradient>
				<path id="XMLID_226_" class="st17" d="M134.9,36.8c-5.5,0-9.9-4.4-9.9-9.9s4.4-9.9,9.9-9.9s9.9,4.4,9.9,9.9
					S140.3,36.8,134.9,36.8z M134.9,23.2c-2,0-3.6,1.6-3.6,3.6s1.6,3.6,3.6,3.6s3.6-1.6,3.6-3.6S136.9,23.2,134.9,23.2z"/>
			</g>
		</g>
		<g id="XMLID_181_">
			<g id="XMLID_190_">
				
					<linearGradient id="XMLID_21_" gradientUnits="userSpaceOnUse" x1="177.3" y1="6.3701" x2="177.3" y2="213.7864" gradientTransform="matrix(1 0 0 -1 0 202)">
					<stop  offset="0" style="stop-color:#2C4D8D"/>
					<stop  offset="5.826729e-02" style="stop-color:#335A99"/>
					<stop  offset="0.2815" style="stop-color:#4C86C2"/>
					<stop  offset="0.4816" style="stop-color:#5EA6E0"/>
					<stop  offset="0.6496" style="stop-color:#69B9F2"/>
					<stop  offset="0.7649" style="stop-color:#6DC0F9"/>
					<stop  offset="0.7718" style="stop-color:#6EC2F9"/>
					<stop  offset="0.8589" style="stop-color:#7CDCFB"/>
					<stop  offset="0.9376" style="stop-color:#84ECFD"/>
					<stop  offset="1" style="stop-color:#87F1FD"/>
				</linearGradient>
				<path id="XMLID_225_" class="st18" d="M177.3,77.7c-5.5,0-9.9-4.4-9.9-9.9s4.4-9.9,9.9-9.9s9.9,4.4,9.9,9.9
					C187.2,73.3,182.8,77.7,177.3,77.7z M177.3,64.2c-2,0-3.6,1.6-3.6,3.6s1.6,3.6,3.6,3.6s3.6-1.6,3.6-3.6
					C180.9,65.8,179.3,64.2,177.3,64.2z"/>
			</g>
		</g>
		<g id="XMLID_196_">
			<g id="XMLID_197_">
				
					<linearGradient id="XMLID_22_" gradientUnits="userSpaceOnUse" x1="181.9" y1="6.3702" x2="181.9" y2="213.7865" gradientTransform="matrix(1 0 0 -1 0 202)">
					<stop  offset="0" style="stop-color:#2C4D8D"/>
					<stop  offset="5.826729e-02" style="stop-color:#335A99"/>
					<stop  offset="0.2815" style="stop-color:#4C86C2"/>
					<stop  offset="0.4816" style="stop-color:#5EA6E0"/>
					<stop  offset="0.6496" style="stop-color:#69B9F2"/>
					<stop  offset="0.7649" style="stop-color:#6DC0F9"/>
					<stop  offset="0.7718" style="stop-color:#6EC2F9"/>
					<stop  offset="0.8589" style="stop-color:#7CDCFB"/>
					<stop  offset="0.9376" style="stop-color:#84ECFD"/>
					<stop  offset="1" style="stop-color:#87F1FD"/>
				</linearGradient>
				<path id="XMLID_224_" class="st19" d="M181.9,122.1c-5.5,0-9.9-4.4-9.9-9.9s4.4-9.9,9.9-9.9s9.9,4.4,9.9,9.9
					C191.8,117.7,187.4,122.1,181.9,122.1z M181.9,108.6c-2,0-3.6,1.6-3.6,3.6s1.6,3.6,3.6,3.6s3.6-1.6,3.6-3.6
					S183.9,108.6,181.9,108.6z"/>
			</g>
		</g>
		<g id="XMLID_136_">
			<g id="XMLID_139_">
				
					<linearGradient id="XMLID_23_" gradientUnits="userSpaceOnUse" x1="162" y1="6.3701" x2="162" y2="213.7864" gradientTransform="matrix(1 0 0 -1 0 202)">
					<stop  offset="0" style="stop-color:#2C4D8D"/>
					<stop  offset="5.826729e-02" style="stop-color:#335A99"/>
					<stop  offset="0.2815" style="stop-color:#4C86C2"/>
					<stop  offset="0.4816" style="stop-color:#5EA6E0"/>
					<stop  offset="0.6496" style="stop-color:#69B9F2"/>
					<stop  offset="0.7649" style="stop-color:#6DC0F9"/>
					<stop  offset="0.7718" style="stop-color:#6EC2F9"/>
					<stop  offset="0.8589" style="stop-color:#7CDCFB"/>
					<stop  offset="0.9376" style="stop-color:#84ECFD"/>
					<stop  offset="1" style="stop-color:#87F1FD"/>
				</linearGradient>
				<path id="XMLID_222_" class="st20" d="M162,162.5c-5.5,0-9.9-4.4-9.9-9.9s4.4-9.9,9.9-9.9s9.9,4.4,9.9,9.9
					S167.5,162.5,162,162.5z M162,149c-2,0-3.6,1.6-3.6,3.6s1.6,3.6,3.6,3.6s3.6-1.6,3.6-3.6S164,149,162,149z"/>
			</g>
		</g>
	</g>
</g>
<g id="DESIGNED_BY_FREEPIK">
</g>
</svg>
