<?xml version="1.0" encoding="utf-8"?>
<!-- Generator: Adobe Illustrator 22.0.1, SVG Export Plug-In . SVG Version: 6.00 Build 0)  -->
<svg version="1.1" xmlns="http://www.w3.org/2000/svg" xmlns:xlink="http://www.w3.org/1999/xlink" x="0px" y="0px"
	 viewBox="0 0 200 200" style="enable-background:new 0 0 200 200;" xml:space="preserve">
<style type="text/css">
	.st0{fill:none;stroke:url(#SVGID_1_);stroke-width:2;stroke-linecap:round;stroke-linejoin:round;stroke-miterlimit:10;}
	.st1{fill:none;stroke:url(#SVGID_2_);stroke-width:2;stroke-linecap:round;stroke-linejoin:round;stroke-miterlimit:10;}
	.st2{fill:none;stroke:url(#SVGID_3_);stroke-width:3;stroke-linecap:round;stroke-linejoin:round;stroke-miterlimit:10;}
	.st3{fill:none;stroke:url(#SVGID_4_);stroke-width:3;stroke-linecap:round;stroke-linejoin:round;stroke-miterlimit:10;}
	.st4{fill:none;stroke:url(#SVGID_5_);stroke-width:3;stroke-linecap:round;stroke-linejoin:round;stroke-miterlimit:10;}
	.st5{fill:none;stroke:url(#SVGID_6_);stroke-width:3;stroke-linecap:round;stroke-linejoin:round;stroke-miterlimit:10;}
	.st6{fill:none;stroke:url(#SVGID_7_);stroke-width:3;stroke-linecap:round;stroke-linejoin:round;stroke-miterlimit:10;}
	.st7{fill:none;stroke:url(#SVGID_8_);stroke-width:3;stroke-linecap:round;stroke-linejoin:round;stroke-miterlimit:10;}
	.st8{fill:none;stroke:url(#SVGID_9_);stroke-width:3;stroke-linecap:round;stroke-linejoin:round;stroke-miterlimit:10;}
	.st9{fill:none;stroke:url(#SVGID_10_);stroke-width:3;stroke-linecap:round;stroke-linejoin:round;stroke-miterlimit:10;}
	.st10{fill:none;stroke:url(#SVGID_11_);stroke-width:4;stroke-linecap:round;stroke-linejoin:round;stroke-miterlimit:10;}
	.st11{fill:none;stroke:url(#SVGID_12_);stroke-width:4;stroke-linecap:round;stroke-linejoin:round;stroke-miterlimit:10;}
	.st12{fill:none;stroke:url(#SVGID_13_);stroke-width:4;stroke-linecap:round;stroke-linejoin:round;stroke-miterlimit:10;}
	.st13{fill:none;stroke:url(#SVGID_14_);stroke-width:4;stroke-linecap:round;stroke-linejoin:round;stroke-miterlimit:10;}
	.st14{fill:none;stroke:url(#SVGID_15_);stroke-width:4;stroke-linecap:round;stroke-linejoin:round;stroke-miterlimit:10;}
	.st15{fill:none;stroke:url(#SVGID_16_);stroke-width:4;stroke-linecap:round;stroke-linejoin:round;stroke-miterlimit:10;}
	.st16{fill:none;stroke:url(#SVGID_17_);stroke-width:4;stroke-linecap:round;stroke-linejoin:round;stroke-miterlimit:10;}
	.st17{fill:none;stroke:url(#SVGID_18_);stroke-width:4;stroke-linecap:round;stroke-linejoin:round;stroke-miterlimit:10;}
	.st18{fill:none;stroke:url(#SVGID_19_);stroke-width:4;stroke-linecap:round;stroke-linejoin:round;stroke-miterlimit:10;}
	.st19{fill:none;stroke:url(#SVGID_20_);stroke-width:4;stroke-linecap:round;stroke-linejoin:round;stroke-miterlimit:10;}
	.st20{opacity:0.75;}
	.st21{fill:none;stroke:#06B2ED;stroke-width:4;stroke-linecap:round;stroke-linejoin:round;stroke-miterlimit:10;}
	.st22{fill:none;stroke:url(#SVGID_21_);stroke-width:4;stroke-linecap:round;stroke-linejoin:round;stroke-miterlimit:10;}
	.st23{fill:none;stroke:url(#SVGID_22_);stroke-width:2;stroke-linecap:round;stroke-linejoin:round;stroke-miterlimit:10;}
	.st24{fill:none;stroke:url(#SVGID_23_);stroke-width:2;stroke-linecap:round;stroke-linejoin:round;stroke-miterlimit:10;}
	.st25{fill:none;stroke:url(#SVGID_24_);stroke-width:2;stroke-linecap:round;stroke-linejoin:round;stroke-miterlimit:10;}
	.st26{fill:none;stroke:url(#SVGID_25_);stroke-width:2;stroke-linecap:round;stroke-linejoin:round;stroke-miterlimit:10;}
	.st27{fill:none;stroke:url(#SVGID_26_);stroke-width:2;stroke-linecap:round;stroke-linejoin:round;stroke-miterlimit:10;}
	.st28{fill:none;stroke:url(#SVGID_27_);stroke-width:2;stroke-linecap:round;stroke-linejoin:round;stroke-miterlimit:10;}
	.st29{fill:none;stroke:url(#SVGID_28_);stroke-width:4;stroke-linecap:round;stroke-linejoin:round;stroke-miterlimit:10;}
	.st30{fill:none;stroke:url(#SVGID_29_);stroke-width:4;stroke-linecap:round;stroke-linejoin:round;stroke-miterlimit:10;}
	.st31{fill:url(#SVGID_30_);}
	.st32{fill:url(#XMLID_2_);}
	.st33{fill:url(#XMLID_3_);}
	.st34{fill:url(#XMLID_4_);}
	.st35{fill:url(#XMLID_5_);}
	.st36{fill:url(#XMLID_6_);}
	.st37{fill:url(#XMLID_7_);}
	.st38{fill:url(#XMLID_8_);}
	.st39{fill:url(#XMLID_9_);}
	.st40{fill:url(#XMLID_11_);}
	.st41{fill:url(#XMLID_12_);}
	.st42{fill:url(#XMLID_13_);}
	.st43{fill:url(#XMLID_14_);}
	.st44{fill:url(#XMLID_15_);}
	.st45{fill:url(#XMLID_16_);}
	.st46{fill:url(#XMLID_17_);}
	.st47{fill:url(#XMLID_18_);}
	.st48{fill:url(#XMLID_19_);}
	.st49{fill:url(#XMLID_20_);}
	.st50{fill:url(#XMLID_21_);}
	.st51{fill:url(#XMLID_22_);}
	.st52{fill:url(#XMLID_23_);}
</style>
<g id="BACKGROUND">
</g>
<g id="TEXTURE">
</g>
<g id="OBJECTS">
	<g>
		<linearGradient id="SVGID_1_" gradientUnits="userSpaceOnUse" x1="3.3046" y1="26.2791" x2="34.2643" y2="26.2791">
			<stop  offset="0" style="stop-color:#87F1FD"/>
			<stop  offset="0.7649" style="stop-color:#6DC0F9"/>
			<stop  offset="0.8003" style="stop-color:#5FA6E1"/>
			<stop  offset="0.8581" style="stop-color:#4A83C0"/>
			<stop  offset="0.9124" style="stop-color:#3C69A8"/>
			<stop  offset="0.9612" style="stop-color:#335999"/>
			<stop  offset="1" style="stop-color:#305494"/>
		</linearGradient>
		<polygon class="st0" points="4.3,20.7 21.5,33.9 21.3,26.6 33.3,31.7 17.3,18.7 17.5,24.9 		"/>
		<linearGradient id="SVGID_2_" gradientUnits="userSpaceOnUse" x1="165.7357" y1="26.2791" x2="196.6954" y2="26.2791">
			<stop  offset="0" style="stop-color:#87F1FD"/>
			<stop  offset="0.7649" style="stop-color:#6DC0F9"/>
			<stop  offset="0.8003" style="stop-color:#5FA6E1"/>
			<stop  offset="0.8581" style="stop-color:#4A83C0"/>
			<stop  offset="0.9124" style="stop-color:#3C69A8"/>
			<stop  offset="0.9612" style="stop-color:#335999"/>
			<stop  offset="1" style="stop-color:#305494"/>
		</linearGradient>
		<polygon class="st1" points="195.7,20.7 178.5,33.9 178.7,26.6 166.7,31.7 182.7,18.7 182.5,24.9 		"/>
		<g>
			<linearGradient id="SVGID_3_" gradientUnits="userSpaceOnUse" x1="136.6686" y1="79.3931" x2="150.0646" y2="79.3931">
				<stop  offset="0" style="stop-color:#87F1FD"/>
				<stop  offset="0.7649" style="stop-color:#6DC0F9"/>
				<stop  offset="0.8003" style="stop-color:#5FA6E1"/>
				<stop  offset="0.8581" style="stop-color:#4A83C0"/>
				<stop  offset="0.9124" style="stop-color:#3C69A8"/>
				<stop  offset="0.9612" style="stop-color:#335999"/>
				<stop  offset="1" style="stop-color:#305494"/>
			</linearGradient>
			<path class="st2" d="M139.7,83.1c-2-2-2-5.3,0-7.4c2-2,5.3-2,7.4,0c2,2,2,5.3,0,7.4C145,85.1,141.7,85.1,139.7,83.1z"/>
			<linearGradient id="SVGID_4_" gradientUnits="userSpaceOnUse" x1="136.6686" y1="53.7852" x2="150.0646" y2="53.7852">
				<stop  offset="0" style="stop-color:#87F1FD"/>
				<stop  offset="0.7649" style="stop-color:#6DC0F9"/>
				<stop  offset="0.8003" style="stop-color:#5FA6E1"/>
				<stop  offset="0.8581" style="stop-color:#4A83C0"/>
				<stop  offset="0.9124" style="stop-color:#3C69A8"/>
				<stop  offset="0.9612" style="stop-color:#335999"/>
				<stop  offset="1" style="stop-color:#305494"/>
			</linearGradient>
			<path class="st3" d="M139.7,57.5c-2-2-2-5.3,0-7.4c2-2,5.3-2,7.4,0c2,2,2,5.3,0,7.4C145,59.5,141.7,59.5,139.7,57.5z"/>
			<linearGradient id="SVGID_5_" gradientUnits="userSpaceOnUse" x1="149.4725" y1="66.8396" x2="162.8685" y2="66.8396">
				<stop  offset="0" style="stop-color:#87F1FD"/>
				<stop  offset="0.7649" style="stop-color:#6DC0F9"/>
				<stop  offset="0.8003" style="stop-color:#5FA6E1"/>
				<stop  offset="0.8581" style="stop-color:#4A83C0"/>
				<stop  offset="0.9124" style="stop-color:#3C69A8"/>
				<stop  offset="0.9612" style="stop-color:#335999"/>
				<stop  offset="1" style="stop-color:#305494"/>
			</linearGradient>
			<path class="st4" d="M152.5,70.5c-2-2-2-5.3,0-7.4c2-2,5.3-2,7.4,0c2,2,2,5.3,0,7.4C157.8,72.5,154.5,72.5,152.5,70.5z"/>
			<linearGradient id="SVGID_6_" gradientUnits="userSpaceOnUse" x1="123.8647" y1="66.8396" x2="137.2607" y2="66.8396">
				<stop  offset="0" style="stop-color:#87F1FD"/>
				<stop  offset="0.7649" style="stop-color:#6DC0F9"/>
				<stop  offset="0.8003" style="stop-color:#5FA6E1"/>
				<stop  offset="0.8581" style="stop-color:#4A83C0"/>
				<stop  offset="0.9124" style="stop-color:#3C69A8"/>
				<stop  offset="0.9612" style="stop-color:#335999"/>
				<stop  offset="1" style="stop-color:#305494"/>
			</linearGradient>
			<path class="st5" d="M126.9,70.5c-2-2-2-5.3,0-7.4c2-2,5.3-2,7.4,0c2,2,2,5.3,0,7.4C132.2,72.5,128.9,72.5,126.9,70.5z"/>
			<linearGradient id="SVGID_7_" gradientUnits="userSpaceOnUse" x1="37.4198" y1="66.8395" x2="49.1588" y2="66.8395">
				<stop  offset="0" style="stop-color:#87F1FD"/>
				<stop  offset="0.7649" style="stop-color:#6DC0F9"/>
				<stop  offset="0.8003" style="stop-color:#5FA6E1"/>
				<stop  offset="0.8581" style="stop-color:#4A83C0"/>
				<stop  offset="0.9124" style="stop-color:#3C69A8"/>
				<stop  offset="0.9612" style="stop-color:#335999"/>
				<stop  offset="1" style="stop-color:#305494"/>
			</linearGradient>
			<path class="st6" d="M47.7,62.1h-6.6c-1.2,0-2.1,1-2.1,2.1v5.2c0,1.2,1,2.1,2.1,2.1h6.6"/>
			<linearGradient id="SVGID_8_" gradientUnits="userSpaceOnUse" x1="63.6683" y1="66.8395" x2="75.4072" y2="66.8395">
				<stop  offset="0" style="stop-color:#87F1FD"/>
				<stop  offset="0.7649" style="stop-color:#6DC0F9"/>
				<stop  offset="0.8003" style="stop-color:#5FA6E1"/>
				<stop  offset="0.8581" style="stop-color:#4A83C0"/>
				<stop  offset="0.9124" style="stop-color:#3C69A8"/>
				<stop  offset="0.9612" style="stop-color:#335999"/>
				<stop  offset="1" style="stop-color:#305494"/>
			</linearGradient>
			<path class="st7" d="M65.2,71.6h6.6c1.2,0,2.1-1,2.1-2.1v-5.2c0-1.2-1-2.1-2.1-2.1h-6.6"/>
			<linearGradient id="SVGID_9_" gradientUnits="userSpaceOnUse" x1="50.1621" y1="53.7155" x2="62.6648" y2="53.7155">
				<stop  offset="0" style="stop-color:#87F1FD"/>
				<stop  offset="0.7649" style="stop-color:#6DC0F9"/>
				<stop  offset="0.8003" style="stop-color:#5FA6E1"/>
				<stop  offset="0.8581" style="stop-color:#4A83C0"/>
				<stop  offset="0.9124" style="stop-color:#3C69A8"/>
				<stop  offset="0.9612" style="stop-color:#335999"/>
				<stop  offset="1" style="stop-color:#305494"/>
			</linearGradient>
			<path class="st8" d="M61.2,58.1v-6.6c0-1.2-1-2.1-2.1-2.1h-5.2c-1.2,0-2.1,1-2.1,2.1v6.6"/>
			<linearGradient id="SVGID_10_" gradientUnits="userSpaceOnUse" x1="50.1621" y1="79.9639" x2="62.6648" y2="79.9639">
				<stop  offset="0" style="stop-color:#87F1FD"/>
				<stop  offset="0.7649" style="stop-color:#6DC0F9"/>
				<stop  offset="0.8003" style="stop-color:#5FA6E1"/>
				<stop  offset="0.8581" style="stop-color:#4A83C0"/>
				<stop  offset="0.9124" style="stop-color:#3C69A8"/>
				<stop  offset="0.9612" style="stop-color:#335999"/>
				<stop  offset="1" style="stop-color:#305494"/>
			</linearGradient>
			<path class="st9" d="M51.7,75.6v6.6c0,1.2,1,2.1,2.1,2.1H59c1.2,0,2.1-1,2.1-2.1v-6.6"/>
			<linearGradient id="SVGID_11_" gradientUnits="userSpaceOnUse" x1="75.2672" y1="147.8757" x2="79.2672" y2="147.8757">
				<stop  offset="0" style="stop-color:#87F1FD"/>
				<stop  offset="0.7649" style="stop-color:#6DC0F9"/>
				<stop  offset="0.8003" style="stop-color:#5FA6E1"/>
				<stop  offset="0.8581" style="stop-color:#4A83C0"/>
				<stop  offset="0.9124" style="stop-color:#3C69A8"/>
				<stop  offset="0.9612" style="stop-color:#335999"/>
				<stop  offset="1" style="stop-color:#305494"/>
			</linearGradient>
			<line class="st10" x1="77.3" y1="131" x2="77.3" y2="164.7"/>
			<linearGradient id="SVGID_12_" gradientUnits="userSpaceOnUse" x1="120.7328" y1="145.4828" x2="124.7328" y2="145.4828">
				<stop  offset="0" style="stop-color:#87F1FD"/>
				<stop  offset="0.7649" style="stop-color:#6DC0F9"/>
				<stop  offset="0.8003" style="stop-color:#5FA6E1"/>
				<stop  offset="0.8581" style="stop-color:#4A83C0"/>
				<stop  offset="0.9124" style="stop-color:#3C69A8"/>
				<stop  offset="0.9612" style="stop-color:#335999"/>
				<stop  offset="1" style="stop-color:#305494"/>
			</linearGradient>
			<line class="st11" x1="122.7" y1="126.3" x2="122.7" y2="164.7"/>
			<linearGradient id="SVGID_13_" gradientUnits="userSpaceOnUse" x1="60.4765" y1="114.9037" x2="121.1587" y2="114.9037">
				<stop  offset="0" style="stop-color:#87F1FD"/>
				<stop  offset="0.7649" style="stop-color:#6DC0F9"/>
				<stop  offset="0.8003" style="stop-color:#5FA6E1"/>
				<stop  offset="0.8581" style="stop-color:#4A83C0"/>
				<stop  offset="0.9124" style="stop-color:#3C69A8"/>
				<stop  offset="0.9612" style="stop-color:#335999"/>
				<stop  offset="1" style="stop-color:#305494"/>
			</linearGradient>
			<path class="st12" d="M119.2,118.8c-6.2,5.1-14.1,8.2-22.8,8.2c-15.7,0-29.1-10.1-33.9-24.2"/>
			<linearGradient id="SVGID_14_" gradientUnits="userSpaceOnUse" x1="123.6823" y1="66.5891" x2="178.6197" y2="66.5891">
				<stop  offset="0" style="stop-color:#87F1FD"/>
				<stop  offset="0.7649" style="stop-color:#6DC0F9"/>
				<stop  offset="0.8003" style="stop-color:#5FA6E1"/>
				<stop  offset="0.8581" style="stop-color:#4A83C0"/>
				<stop  offset="0.9124" style="stop-color:#3C69A8"/>
				<stop  offset="0.9612" style="stop-color:#335999"/>
				<stop  offset="1" style="stop-color:#305494"/>
			</linearGradient>
			<path class="st13" d="M125.7,33.3h16.8c0.3,0,0.6,0,0.8,0c0,0,0,0,0,0c18.4,0,33.3,14.9,33.3,33.3c0,18.4-14.9,33.3-33.3,33.3
				c-1.7,0-3.3-0.1-4.9-0.4"/>
			<linearGradient id="SVGID_15_" gradientUnits="userSpaceOnUse" x1="21.3803" y1="66.5683" x2="100.462" y2="66.5683">
				<stop  offset="0" style="stop-color:#87F1FD"/>
				<stop  offset="0.7649" style="stop-color:#6DC0F9"/>
				<stop  offset="0.8003" style="stop-color:#5FA6E1"/>
				<stop  offset="0.8581" style="stop-color:#4A83C0"/>
				<stop  offset="0.9124" style="stop-color:#3C69A8"/>
				<stop  offset="0.9612" style="stop-color:#335999"/>
				<stop  offset="1" style="stop-color:#305494"/>
			</linearGradient>
			<path class="st14" d="M98.5,71.8h-9C87,87.7,73.2,99.8,56.6,99.8c-18.4,0-33.3-14.9-33.3-33.3c0-18.4,14.9-33.3,33.3-33.3
				c0.2,0,10.5,0,10.5,0"/>
			<linearGradient id="SVGID_16_" gradientUnits="userSpaceOnUse" x1="65.0915" y1="39.2891" x2="83.2183" y2="39.2891">
				<stop  offset="0" style="stop-color:#87F1FD"/>
				<stop  offset="0.7649" style="stop-color:#6DC0F9"/>
				<stop  offset="0.8003" style="stop-color:#5FA6E1"/>
				<stop  offset="0.8581" style="stop-color:#4A83C0"/>
				<stop  offset="0.9124" style="stop-color:#3C69A8"/>
				<stop  offset="0.9612" style="stop-color:#335999"/>
				<stop  offset="1" style="stop-color:#305494"/>
			</linearGradient>
			<path class="st15" d="M74.2,55L74.2,55c-3.9,0-7.1-3.2-7.1-7.1V30.7c0-3.9,3.2-7.1,7.1-7.1l0,0c3.9,0,7.1,3.2,7.1,7.1v17.2
				C81.2,51.8,78.1,55,74.2,55z"/>
			<linearGradient id="SVGID_17_" gradientUnits="userSpaceOnUse" x1="79.3044" y1="39.2891" x2="97.4312" y2="39.2891">
				<stop  offset="0" style="stop-color:#87F1FD"/>
				<stop  offset="0.7649" style="stop-color:#6DC0F9"/>
				<stop  offset="0.8003" style="stop-color:#5FA6E1"/>
				<stop  offset="0.8581" style="stop-color:#4A83C0"/>
				<stop  offset="0.9124" style="stop-color:#3C69A8"/>
				<stop  offset="0.9612" style="stop-color:#335999"/>
				<stop  offset="1" style="stop-color:#305494"/>
			</linearGradient>
			<path class="st16" d="M88.4,55L88.4,55c-3.9,0-7.1-3.2-7.1-7.1V30.7c0-3.9,3.2-7.1,7.1-7.1l0,0c3.9,0,7.1,3.2,7.1,7.1v17.2
				C95.4,51.8,92.3,55,88.4,55z"/>
			<linearGradient id="SVGID_18_" gradientUnits="userSpaceOnUse" x1="93.5173" y1="39.2891" x2="111.6441" y2="39.2891">
				<stop  offset="0" style="stop-color:#87F1FD"/>
				<stop  offset="0.7649" style="stop-color:#6DC0F9"/>
				<stop  offset="0.8003" style="stop-color:#5FA6E1"/>
				<stop  offset="0.8581" style="stop-color:#4A83C0"/>
				<stop  offset="0.9124" style="stop-color:#3C69A8"/>
				<stop  offset="0.9612" style="stop-color:#335999"/>
				<stop  offset="1" style="stop-color:#305494"/>
			</linearGradient>
			<path class="st17" d="M102.6,55L102.6,55c-3.9,0-7.1-3.2-7.1-7.1V30.7c0-3.9,3.2-7.1,7.1-7.1l0,0c3.9,0,7.1,3.2,7.1,7.1v17.2
				C109.6,51.8,106.5,55,102.6,55z"/>
			<linearGradient id="SVGID_19_" gradientUnits="userSpaceOnUse" x1="109.5556" y1="39.2891" x2="127.6823" y2="39.2891">
				<stop  offset="0" style="stop-color:#87F1FD"/>
				<stop  offset="0.7649" style="stop-color:#6DC0F9"/>
				<stop  offset="0.8003" style="stop-color:#5FA6E1"/>
				<stop  offset="0.8581" style="stop-color:#4A83C0"/>
				<stop  offset="0.9124" style="stop-color:#3C69A8"/>
				<stop  offset="0.9612" style="stop-color:#335999"/>
				<stop  offset="1" style="stop-color:#305494"/>
			</linearGradient>
			<path class="st18" d="M118.6,55L118.6,55c-3.9,0-7.1-3.2-7.1-7.1V30.7c0-3.9,3.2-7.1,7.1-7.1l0,0c3.9,0,7.1,3.2,7.1,7.1v17.2
				C125.7,51.8,122.5,55,118.6,55z"/>
			<linearGradient id="SVGID_20_" gradientUnits="userSpaceOnUse" x1="93.6484" y1="90.1243" x2="139.5138" y2="90.1243">
				<stop  offset="0" style="stop-color:#87F1FD"/>
				<stop  offset="0.7649" style="stop-color:#6DC0F9"/>
				<stop  offset="0.8003" style="stop-color:#5FA6E1"/>
				<stop  offset="0.8581" style="stop-color:#4A83C0"/>
				<stop  offset="0.9124" style="stop-color:#3C69A8"/>
				<stop  offset="0.9612" style="stop-color:#335999"/>
				<stop  offset="1" style="stop-color:#305494"/>
			</linearGradient>
			<path class="st19" d="M116.6,118.3c5.4,0,10.7-2,14.8-6.1c4.1-4.1,6.1-9.4,6.1-14.8s-2-10.7-6.1-14.8c-0.3-0.3-0.6-0.6-0.9-0.9
				c-0.3-0.3-0.6-0.5-1-0.8l-9.3-9.3l-7-7c-1.7-1.7-3.9-2.5-6.1-2.5c-2.2,0-4.4,0.8-6.1,2.5c-1.7,1.7-2.5,3.9-2.5,6.1
				c0,2.2,0.8,4.4,2.5,6.1l2.9,2.9l0.6,0.6c-0.5,0.3-0.9,0.7-1.4,1.1c-0.4,0.4-0.9,0.8-1.3,1.2c-4.1,4.1-6.1,9.4-6.1,14.8
				s2,10.7,6.1,14.8"/>
			<linearGradient id="SVGID_21_" gradientUnits="userSpaceOnUse" x1="115.4499" y1="110.6012" x2="127.9267" y2="110.6012">
				<stop  offset="0" style="stop-color:#87F1FD"/>
				<stop  offset="0.7649" style="stop-color:#6DC0F9"/>
				<stop  offset="0.8003" style="stop-color:#5FA6E1"/>
				<stop  offset="0.8581" style="stop-color:#4A83C0"/>
				<stop  offset="0.9124" style="stop-color:#3C69A8"/>
				<stop  offset="0.9612" style="stop-color:#335999"/>
				<stop  offset="1" style="stop-color:#305494"/>
			</linearGradient>
			
				<path style="fill:none;stroke:url(#SVGID_21_);stroke-width:2;stroke-linecap:round;stroke-linejoin:round;stroke-miterlimit:10;" d="
				M116.4,112.4c3.8,0.3,7.6-1,10.5-3.5"/>
			<linearGradient id="SVGID_22_" gradientUnits="userSpaceOnUse" x1="117.6189" y1="48.5827" x2="122.5736" y2="48.5827">
				<stop  offset="0" style="stop-color:#87F1FD"/>
				<stop  offset="0.7649" style="stop-color:#6DC0F9"/>
				<stop  offset="0.8003" style="stop-color:#5FA6E1"/>
				<stop  offset="0.8581" style="stop-color:#4A83C0"/>
				<stop  offset="0.9124" style="stop-color:#3C69A8"/>
				<stop  offset="0.9612" style="stop-color:#335999"/>
				<stop  offset="1" style="stop-color:#305494"/>
			</linearGradient>
			<path class="st23" d="M121.6,47.1c0,1.6-1.3,3-3,3"/>
			<linearGradient id="SVGID_23_" gradientUnits="userSpaceOnUse" x1="101.5806" y1="48.5827" x2="106.5353" y2="48.5827">
				<stop  offset="0" style="stop-color:#87F1FD"/>
				<stop  offset="0.7649" style="stop-color:#6DC0F9"/>
				<stop  offset="0.8003" style="stop-color:#5FA6E1"/>
				<stop  offset="0.8581" style="stop-color:#4A83C0"/>
				<stop  offset="0.9124" style="stop-color:#3C69A8"/>
				<stop  offset="0.9612" style="stop-color:#335999"/>
				<stop  offset="1" style="stop-color:#305494"/>
			</linearGradient>
			<path class="st24" d="M105.5,47.1c0,1.6-1.3,3-3,3"/>
			<linearGradient id="SVGID_24_" gradientUnits="userSpaceOnUse" x1="87.3677" y1="48.5827" x2="92.3224" y2="48.5827">
				<stop  offset="0" style="stop-color:#87F1FD"/>
				<stop  offset="0.7649" style="stop-color:#6DC0F9"/>
				<stop  offset="0.8003" style="stop-color:#5FA6E1"/>
				<stop  offset="0.8581" style="stop-color:#4A83C0"/>
				<stop  offset="0.9124" style="stop-color:#3C69A8"/>
				<stop  offset="0.9612" style="stop-color:#335999"/>
				<stop  offset="1" style="stop-color:#305494"/>
			</linearGradient>
			<path class="st25" d="M91.3,47.1c0,1.6-1.3,3-3,3"/>
			<linearGradient id="SVGID_25_" gradientUnits="userSpaceOnUse" x1="73.1548" y1="48.5827" x2="78.1095" y2="48.5827">
				<stop  offset="0" style="stop-color:#87F1FD"/>
				<stop  offset="0.7649" style="stop-color:#6DC0F9"/>
				<stop  offset="0.8003" style="stop-color:#5FA6E1"/>
				<stop  offset="0.8581" style="stop-color:#4A83C0"/>
				<stop  offset="0.9124" style="stop-color:#3C69A8"/>
				<stop  offset="0.9612" style="stop-color:#335999"/>
				<stop  offset="1" style="stop-color:#305494"/>
			</linearGradient>
			<path class="st26" d="M77.1,47.1c0,1.6-1.3,3-3,3"/>
			<linearGradient id="SVGID_26_" gradientUnits="userSpaceOnUse" x1="52.8456" y1="67.0901" x2="59.9814" y2="67.0901">
				<stop  offset="0" style="stop-color:#87F1FD"/>
				<stop  offset="0.7649" style="stop-color:#6DC0F9"/>
				<stop  offset="0.8003" style="stop-color:#5FA6E1"/>
				<stop  offset="0.8581" style="stop-color:#4A83C0"/>
				<stop  offset="0.9124" style="stop-color:#3C69A8"/>
				<stop  offset="0.9612" style="stop-color:#335999"/>
				<stop  offset="1" style="stop-color:#305494"/>
			</linearGradient>
			<circle class="st27" cx="56.4" cy="67.1" r="2.6"/>
			<linearGradient id="SVGID_27_" gradientUnits="userSpaceOnUse" x1="90.4224" y1="158.5683" x2="94.4224" y2="158.5683">
				<stop  offset="0" style="stop-color:#87F1FD"/>
				<stop  offset="0.7649" style="stop-color:#6DC0F9"/>
				<stop  offset="0.8003" style="stop-color:#5FA6E1"/>
				<stop  offset="0.8581" style="stop-color:#4A83C0"/>
				<stop  offset="0.9124" style="stop-color:#3C69A8"/>
				<stop  offset="0.9612" style="stop-color:#335999"/>
				<stop  offset="1" style="stop-color:#305494"/>
			</linearGradient>
			
				<polyline style="fill:none;stroke:url(#SVGID_27_);stroke-width:4;stroke-linecap:round;stroke-linejoin:round;stroke-miterlimit:10;" points="
				92.4,135.8 92.4,164.7 92.4,181.3 			"/>
			<linearGradient id="SVGID_28_" gradientUnits="userSpaceOnUse" x1="105.5776" y1="157.7706" x2="109.5776" y2="157.7706">
				<stop  offset="0" style="stop-color:#87F1FD"/>
				<stop  offset="0.7649" style="stop-color:#6DC0F9"/>
				<stop  offset="0.8003" style="stop-color:#5FA6E1"/>
				<stop  offset="0.8581" style="stop-color:#4A83C0"/>
				<stop  offset="0.9124" style="stop-color:#3C69A8"/>
				<stop  offset="0.9612" style="stop-color:#335999"/>
				<stop  offset="1" style="stop-color:#305494"/>
			</linearGradient>
			<polyline class="st29" points="107.6,134.2 107.6,164.7 107.6,181.3 			"/>
		</g>
	</g>
</g>
<g id="DESIGNED_BY_FREEPIK">
</g>
</svg>
