<?xml version="1.0" encoding="utf-8"?>
<!-- Generator: Adobe Illustrator 22.0.1, SVG Export Plug-In . SVG Version: 6.00 Build 0)  -->
<svg version="1.1" id="Capa_1" xmlns="http://www.w3.org/2000/svg" xmlns:xlink="http://www.w3.org/1999/xlink" x="0px" y="0px"
	 viewBox="0 0 200 200" style="enable-background:new 0 0 200 200;" xml:space="preserve">
<style type="text/css">
	.st0{fill:none;stroke:#FFFFFF;stroke-width:6;stroke-miterlimit:10;}
	.st1{fill:#FFFFFF;}
</style>
<g>
	<g>
		<g>
			<path class="st0" d="M100,196.3L100,196.3c-53.2,0-96.3-43.1-96.3-96.3l0,0C3.7,46.8,46.8,3.7,100,3.7l0,0
				c53.2,0,96.3,43.1,96.3,96.3l0,0C196.3,153.2,153.2,196.3,100,196.3z"/>
		</g>
		<g>
			<g>
				<g>
					<g>
						<path class="st1" d="M126.7,110.6c-1.4-0.8-8.1-4.4-9.4-4.9s-2.2-0.8-3.2,0.6s-3.8,4.4-4.6,5.3c-0.9,0.9-1.7,1-3.1,0.2
							s-5.8-2.4-11-7.4c-4-3.9-6.7-8.6-7.4-10c-0.8-1.4,0-2.2,0.7-2.8c0.7-0.6,1.5-1.6,2.2-2.4s1-1.4,1.5-2.3s0.3-1.7,0-2.5
							c-0.3-0.7-2.9-7.7-3.9-10.6c-1.1-2.8-2.2-2.4-3.1-2.5c-0.8,0-1.7-0.2-2.7-0.2c-0.9,0-2.5,0.3-3.8,1.6
							c-1.3,1.4-5.1,4.6-5.3,11.5c-0.3,6.9,4.5,13.7,5.2,14.7s9.1,15.9,23.1,22s14.1,4.3,16.7,4.1c2.6-0.1,8.4-3.1,9.7-6.3
							c1.3-3.2,1.4-6,1.1-6.6C129,111.7,128.1,111.4,126.7,110.6L126.7,110.6z M101,143.8c-9.3,0-17.9-2.8-25.1-7.6l-17.6,5.6
							l5.7-17c-5.5-7.5-8.7-16.8-8.7-26.8c0-25.2,20.5-45.7,45.7-45.7s45.7,20.5,45.7,45.7C146.7,123.3,126.2,143.8,101,143.8
							L101,143.8z M101,43.3c-30.3,0-54.9,24.6-54.9,54.9c0,10.4,2.9,20.1,7.9,28.3l-9.9,29.4l30.4-9.7c7.9,4.3,16.9,6.8,26.5,6.8
							c30.3,0,54.9-24.6,54.9-54.9S131.3,43.3,101,43.3L101,43.3z"/>
					</g>
				</g>
			</g>
		</g>
	</g>
</g>
</svg>
